<svg viewBox="0 0 256 256" xmlns="http://www.w3.org/2000/svg"><g fill="#000" stroke-miterlimit="10" stroke-width="0" transform="matrix(2.8008 0 0 2.8008 1.964 1.964)"><path d="m51.118 86.005c-.086 0-.173-.011-.26-.034l-3.018-.809c-.267-.071-.493-.25-.623-.494-.13-.243-.154-.53-.065-.792 4.672-13.85 10.796-22.083 22.15-28.983-8.041 2.683-16.145 8.189-19.843 17.37-.158.392-.512.666-.97.625-.423-.018-.79-.3-.915-.705-3.311-10.738-.882-19.006 7.643-26.021 4.854-3.809 10.649-5.053 15.762-6.15 6.054-1.299 11.281-2.421 13.609-7.231.181-.373.578-.6.986-.561.412.035.761.321.877.719 3.929 13.596 6.634 26.781-3.292 38.631-7.412 7.617-16.797 9.57-27.95 5.868-1.327 2.52-2.353 5.092-3.128 7.836-.125.443-.526.731-.963.731z"/><path d="m38.882 86.005c-.437 0-.838-.288-.963-.729-.774-2.743-1.801-5.315-3.128-7.836-11.152 3.704-20.536 1.75-27.9-5.814-9.977-11.906-7.271-25.091-3.341-38.686.115-.398.464-.684.877-.719.409-.033.804.188.986.561 2.327 4.809 7.555 5.931 13.608 7.231 5.113 1.097 10.908 2.341 15.743 6.136 8.544 7.029 10.973 15.298 7.662 26.036-.125.405-.491.687-.914.705-.418.019-.812-.234-.97-.625-3.698-9.181-11.803-14.688-19.843-17.37 11.354 6.9 17.477 15.133 22.151 28.983.088.262.064.548-.066.792s-.356.423-.623.494l-3.017.809c-.089.021-.176.032-.262.032z"/><path d="m63.357 31.594c-2.609-15.237-14.411-21.708-27.319-27.511-.379-.17-.821-.089-1.116.203-.294.292-.377.735-.21 1.115 2.16 4.887-.368 9.598-3.295 15.054-2.472 4.608-5.275 9.831-5.512 15.996-.005.368 0 .731.005 1.095 3.781 1.073 7.754 2.652 11.324 5.453.592.487 1.156.982 1.699 1.482.008-.048.021-.095.021-.145.058-4.206 1.011-8.681 2.705-12.924-.929 5.788-.963 10.836-.144 15.736 1.246 1.429 2.311 2.907 3.187 4.44 1.774-3.19 4.313-6.153 7.653-8.902l.081-.065c3.46-2.715 7.267-4.299 10.917-5.382.187-1.791.194-3.67.004-5.645z"/></g></svg>