<svg preserveAspectRatio="xMidYMid meet" viewBox="0 0 1280 986" xmlns="http://www.w3.org/2000/svg"><path d="m5147 9583c-16-26 23-274 67-419 126-417 440-1011 804-1521 57-80 688-809 1843-2130 966-1105 1763-2013 1770-2019 8-6 36-16 62-23 71-17 172-68 213-106 38-36 38-40 9-115-7-19-16-43-19-53-5-15-15-17-88-12-46 3-193 10-328 15-602 25-2157 90-2365 100-560 24-751 32-1420 60-823 34-1121 47-1405 60-113 5-294 12-403 16s-196 10-195 15c6 14 1186 862 1663 1194 349 242 417 296 550 429 213 213 376 463 485 742 37 96 93 284 86 291-1 2-84 8-184 14-433 26-854-41-1257-201-108-42-349-164-463-234-167-101-257-166-1042-754l-775-580-11 66c-14 94-49 152-113 196-55 37-77 40-100 17-17-17-21-34-21-94 0-61-4-78-25-110-31-44-55-52-149-44-300 26-577 217-696 481-91 202-78 377 51 691 82 200 188 381 399 680 28 40 54 91 61 120 24 96 10 295-46 647-30 191-46 245-87 291l-33 38-359 70c-328 64-364 69-407 59-85-21-92-35-219-425-142-437-157-499-169-655-10-143-31-419-71-947-11-147-36-478-55-737-106-1440-110-1497-97-1596 12-97 25-115 101-136 74-22 76-23 53-48-63-70-149-234-188-357-14-46-43-131-64-189-67-182-83-285-84-516l-1-201-37-44c-20-24-70-82-111-128-140-156-170-248-127-397 32-109 64-169 118-223 126-126 295-135 464-25 26 18 27 17 73-22 185-156 341-233 604-299 301-75 371-79 1761-95 509-6 1249-15 1645-20 721-10 1574-21 3070-40 440-6 1108-15 1485-20 1187-17 1465-14 1740 21 605 76 1036 290 1239 615 24 38 72 110 107 159 106 149 135 195 167 264 124 274 112 708-29 1010l-35 76 12 90c10 76 9 113-4 230-16 132-59 509-227 1990-39 341-93 818-121 1059l-50 439-71 176c-90 223-138 321-198 403l-48 66-84 7c-46 3-130 5-188 3-104-3-105-3-118-31-8-15-18-56-24-91-10-61-11-63-67-99-72-46-190-153-270-242-206-230-345-554-377-873l-7-73 419 3c416 3 419 3 460-19 76-40 84-66 95-285 9-191 26-458 54-844 20-268 6-344-85-447-89-101-224-130-342-73-118 56-233 179-300 321-31 65-33 78-33 170 0 99 1 101 48 199 26 54 47 104 47 111s-14 25-31 39c-40 34-125 37-174 6-56-35-112-124-149-237l-17-53-192 233c-826 1004-2349 2869-2707 3317-262 327-292 361-430 484-324 289-704 538-1185 776-323 160-597 269-810 320-96 24-230 37-238 23zm-4590-8419 31-65-24-16c-48-31-138-33-167-4-13 13 16 112 38 131 17 14 66 28 81 23 6-2 24-33 41-69z" transform="matrix(.1 0 0 -.1 0 986)"/></svg>